<?xml version="1.0" encoding="UTF-8" standalone="no"?>
<!-- Created with Inkscape (http://www.inkscape.org/) -->

<svg
   width="880"
   height="440"
   viewBox="0 0 176 88"
   version="1.1"
   id="svg5"
   xml:space="preserve"
   xmlns="http://www.w3.org/2000/svg"
   xmlns:svg="http://www.w3.org/2000/svg"><defs
     id="defs2"><rect
       x="645.99359"
       y="660.75775"
       width="457.85953"
       height="135.95148"
       id="rect5061" /><rect
       x="645.99359"
       y="660.75775"
       width="457.85953"
       height="135.95148"
       id="rect5061-7" /><rect
       x="645.99359"
       y="660.75775"
       width="457.85953"
       height="135.95148"
       id="rect5061-7-1" /><rect
       x="645.99359"
       y="660.75775"
       width="457.85953"
       height="135.95148"
       id="rect5061-7-3" /><rect
       x="645.99359"
       y="660.75775"
       width="457.85953"
       height="135.95148"
       id="rect5061-7-1-6" /></defs><g
     id="layer1"
     transform="translate(-12,-12)"><rect
       style="fill:#e8f6fe;fill-opacity:1;stroke-width:0.192839"
       id="rect111"
       width="176"
       height="88"
       x="12"
       y="12"
       ry="3.9999998"
       rx="4" /><path
       style="display:none;fill:#009a07;fill-opacity:0.147707;stroke:none;stroke-width:0.4;stroke-miterlimit:4;stroke-dasharray:none;stroke-opacity:1"
       d="M 236,128 188,108 V 76 l 48,-4 z m -128,0 48,-20 V 76 L 108,36 Z"
       id="path37898" /><rect
       style="fill:#ffffff;fill-opacity:1;stroke-width:0.192839"
       id="rect111-6-0"
       width="48"
       height="68"
       x="76"
       y="24"
       ry="3.9999998"
       rx="4" /><rect
       style="fill:#c0c0c0;fill-opacity:1;stroke-width:0.200001"
       id="rect2510-3-3-7-56-3"
       width="40"
       height="24"
       x="82"
       y="62"
       rx="3.9999998"
       ry="3.9999998" /><rect
       style="fill:#d9d9d9;fill-opacity:1;stroke-width:0.200001"
       id="rect2510-3-3-7-56"
       width="40"
       height="24"
       x="81"
       y="63"
       rx="3.9999998"
       ry="3.9999998" /><rect
       style="fill:#ffffff;fill-opacity:1;stroke-width:0.192839"
       id="rect111-6-0-2"
       width="48"
       height="68"
       x="20"
       y="24"
       ry="3.9999998"
       rx="4" /><rect
       style="fill:#bfbfbf;fill-opacity:1;stroke-width:0.192839"
       id="rect111-6-0-7-4-2"
       width="48"
       height="68"
       x="134"
       y="22"
       ry="3.9999998"
       rx="4" /><rect
       style="fill:#d8d8d8;fill-opacity:1;stroke-width:0.192839"
       id="rect111-6-0-7-4"
       width="48"
       height="68"
       x="133"
       y="23"
       ry="3.9999998"
       rx="4" /><rect
       style="fill:#ffffff;fill-opacity:1;stroke-width:0.192839"
       id="rect111-6-0-7"
       width="48"
       height="68"
       x="132"
       y="24"
       ry="3.9999998"
       rx="4" /><rect
       style="fill:#f2f2f2;fill-opacity:1;stroke-width:0.200001"
       id="rect2510-3-3-7"
       width="40"
       height="24"
       x="80"
       y="64"
       rx="3.9999998"
       ry="3.9999998" /><rect
       style="fill:#f2f2f2;fill-opacity:1;stroke-width:0.200001"
       id="rect2510-3-3-7-5"
       width="40"
       height="24"
       x="80"
       y="36"
       rx="3.9999998"
       ry="3.9999998" /><rect
       style="fill:#f2f2f2;fill-opacity:1;stroke-width:0.200001"
       id="rect2510-3-3-7-5-7"
       width="40"
       height="24"
       x="136"
       y="36"
       rx="3.9999998"
       ry="3.9999998" /><rect
       style="fill:#323232;fill-opacity:1;stroke-width:0.192839"
       id="rect111-6-0-2-3-9"
       width="32"
       height="2"
       x="84"
       y="40"
       ry="1"
       rx="1" /><rect
       style="fill:#323232;fill-opacity:1;stroke-width:0.192839"
       id="rect111-6-0-2-3-6-8"
       width="24"
       height="2"
       x="84"
       y="44"
       ry="1"
       rx="1" /><rect
       style="fill:#323232;fill-opacity:1;stroke-width:0.192839"
       id="rect111-6-0-2-3-6-8-1"
       width="28"
       height="2"
       x="84"
       y="48"
       ry="1"
       rx="1" /><rect
       style="fill:#323232;fill-opacity:1;stroke-width:0.192839"
       id="rect111-6-0-2-3-9-6"
       width="32"
       height="2"
       x="24"
       y="28"
       ry="1"
       rx="1" /><rect
       style="fill:#323232;fill-opacity:1;stroke-width:0.192839"
       id="rect111-6-0-2-3-6-8-2"
       width="24"
       height="2"
       x="24"
       y="32"
       ry="1"
       rx="1" /><rect
       style="fill:#323232;fill-opacity:1;stroke-width:0.192839"
       id="rect111-6-0-2-3-6-8-1-1"
       width="28"
       height="2"
       x="24"
       y="36"
       ry="1"
       rx="1" /><rect
       style="fill:#323232;fill-opacity:1;stroke-width:0.192839"
       id="rect111-6-0-2-3-9-3"
       width="32"
       height="2"
       x="84"
       y="74"
       ry="1"
       rx="1" /><rect
       style="fill:#323232;fill-opacity:1;stroke-width:0.192839"
       id="rect111-6-0-2-3-6-8-0"
       width="24"
       height="2"
       x="84"
       y="78"
       ry="1"
       rx="1" /><rect
       style="fill:#323232;fill-opacity:1;stroke-width:0.192839"
       id="rect111-6-0-2-3-6-8-1-4"
       width="28"
       height="2"
       x="84"
       y="82"
       ry="1"
       rx="1" /><rect
       style="fill:#323232;fill-opacity:1;stroke-width:0.192839"
       id="rect111-6-0-2-3-9-3-4"
       width="32"
       height="2"
       x="140"
       y="40"
       ry="1"
       rx="1" /><rect
       style="fill:#323232;fill-opacity:1;stroke-width:0.192839"
       id="rect111-6-0-2-3-6-8-0-4"
       width="24"
       height="2"
       x="140"
       y="44"
       ry="1"
       rx="1" /><rect
       style="fill:#323232;fill-opacity:1;stroke-width:0.192839"
       id="rect111-6-0-2-3-6-8-1-4-7"
       width="28"
       height="2"
       x="140"
       y="48"
       ry="1"
       rx="1" /><text
       xml:space="preserve"
       transform="matrix(0.2,0,0,0.2,-113.42283,-118.06261)"
       id="text5059"
       style="font-size:32px;white-space:pre;shape-inside:url(#rect5061);display:inline;fill:#ffffff;fill-opacity:1"><tspan
         x="645.99414"
         y="690.35781"
         id="tspan12"><tspan
           style="font-family:'CMU Serif';-inkscape-font-specification:'CMU Serif';fill:#000000"
           id="tspan11">Runner</tspan></tspan></text><text
       xml:space="preserve"
       transform="matrix(0.2,0,0,0.2,-49.386328,-106.07157)"
       id="text5059-8"
       style="font-size:32px;white-space:pre;shape-inside:url(#rect5061-7);display:inline;fill:#000000;fill-opacity:1"><tspan
         x="645.99414"
         y="690.35781"
         id="tspan14"><tspan
           style="font-family:'CMU Serif';-inkscape-font-specification:'CMU Serif'"
           id="tspan13">Algorithm</tspan></tspan></text><text
       xml:space="preserve"
       transform="matrix(0.2,0,0,0.2,6.5643799,-106.14196)"
       id="text5059-8-53"
       style="font-size:32px;white-space:pre;shape-inside:url(#rect5061-7-3);display:inline;fill:#000000;fill-opacity:1"><tspan
         x="645.99414"
         y="690.35781"
         id="tspan16"><tspan
           style="font-family:'CMU Serif';-inkscape-font-specification:'CMU Serif'"
           id="tspan15">Models</tspan></tspan></text><text
       xml:space="preserve"
       transform="matrix(0.2,0,0,0.2,-79.829559,-66.644361)"
       id="text5059-8-0"
       style="font-size:24px;text-align:center;white-space:pre;shape-inside:url(#rect5061-7-1);display:inline;fill:#ffffff;fill-opacity:1"
       x="75.840042"
       y="0"><tspan
         x="818.35582"
         y="682.95781"
         id="tspan18"><tspan
           style="font-family:'CMU Serif';-inkscape-font-specification:'CMU Serif';fill:#000000"
           id="tspan17">Extensions</tspan></tspan></text><rect
       style="fill:#f2f2f2;fill-opacity:1;stroke-width:0.2"
       id="rect2510-3-3-7-2"
       width="40"
       height="24"
       x="136"
       y="64"
       rx="3.9999998"
       ry="4" /><text
       xml:space="preserve"
       transform="matrix(0.2,0,0,0.2,-22.384756,-66.644361)"
       id="text5059-8-0-0"
       style="font-size:24px;text-align:center;white-space:pre;shape-inside:url(#rect5061-7-1-6);display:inline;fill:#ffffff;fill-opacity:1"
       x="75.840042"
       y="0"><tspan
         x="811.08379"
         y="682.95781"
         id="tspan20"><tspan
           style="font-family:'CMU Serif';-inkscape-font-specification:'CMU Serif';fill:#000000"
           id="tspan19">Distribution</tspan></tspan></text><rect
       style="fill:#323232;fill-opacity:1;stroke-width:0.192839"
       id="rect111-6-0-2-3-9-3-3"
       width="32"
       height="2"
       x="140"
       y="74"
       ry="1"
       rx="1" /><rect
       style="fill:#323232;fill-opacity:1;stroke-width:0.192839"
       id="rect111-6-0-2-3-6-8-0-1"
       width="24"
       height="2"
       x="140"
       y="78"
       ry="1"
       rx="1" /><rect
       style="fill:#323232;fill-opacity:1;stroke-width:0.192839"
       id="rect111-6-0-2-3-6-8-1-4-75"
       width="28"
       height="2"
       x="140"
       y="82"
       ry="1"
       rx="1" /><g
       style="display:none;overflow:hidden;fill:currentColor;stroke-width:10.666"
       id="g36411"
       transform="matrix(0.01875109,0,0,0.01875109,134.39746,78.343904)"><path
         d="M 514.72,936.32 A 389.12,389.12 0 0 1 324.64,890.72 C 203.52,824 128,727.04 99.2,602.4 69.6,472.8 93.92,404.64 115.2,344.48 a 406.72,406.72 0 0 1 170.4,-196.32 443.68,443.68 0 0 1 192,-59.84 h 19.36 c 64,0 128,17.12 210.88,57.12 96,45.6 144.8,89.28 183.2,160 38.4,70.72 61.28,126.56 38.88,225.44 -5.6,25.12 -10.24,50.72 -14.72,75.36 -11.36,64 -22.24,123.52 -49.76,171.2 -39.68,68.8 -107.04,115.52 -200,138.72 a 625.28,625.28 0 0 1 -150.72,20.16 z"
         fill="#ffffff"
         id="path36378"
         style="stroke-width:63.0819" /><path
         d="m 298.88,171.84 a 424.16,424.16 0 0 1 180,-56.48 c 68,-3.36 130.4,12.64 216.96,54.08 86.56,41.44 134.56,80.96 171.04,148.96 36.48,68 56.48,118.08 36.48,206.56 -20,88.48 -26.08,177.44 -61.6,238.88 -35.52,61.44 -95.04,104 -183.04,126.08 -88,22.08 -212.96,36.48 -320.96,-23.04 -108,-59.52 -184,-148 -212,-270.4 -28,-122.4 -4.96,-186.08 16,-243.52 A 378.24,378.24 0 0 1 298.88,171.84 Z"
         fill="#1d1d1b"
         id="path36380"
         style="stroke-width:63.0819" /><path
         d="m 328.8,180.96 a 365.92,365.92 0 0 1 123.04,-41.44 c 64,-7.52 167.52,20.96 178.56,26.08 11.04,5.12 20,8 16,11.04 -4,3.04 -40.48,35.04 -53.44,36.96 -12.96,1.92 -57.92,-8.96 -92,-7.52 -34.08,1.44 -56.96,8 -73.44,8 -16.48,0 -40,-17.92 -56,-19.52 -16,-1.6 -50.24,-9.6 -42.72,-13.6 z"
         fill="#4eae4d"
         id="path36382"
         style="stroke-width:63.0819" /><path
         d="m 297.28,205.92 a 92.32,92.32 0 0 1 66.56,5.44 c 25.92,14.08 23.04,20 58.56,19.52 35.52,-0.48 52.48,-6.56 63.04,-4 10.56,2.56 54.56,21.44 93.44,14.08 a 165.92,165.92 0 0 0 68.48,-28 c 11.52,-7.52 18.56,-20 25.44,-19.04 6.88,0.96 70.56,38.56 69.44,42.56 a 71.2,71.2 0 0 1 -27.52,24 118.72,118.72 0 0 0 -44.48,55.52 c -8,23.52 -12.48,94.08 -1.92,100.96 10.56,6.88 37.44,-3.04 48,4.96 10.56,8 12.96,32.96 30.56,35.04 17.6,2.08 24.96,-11.04 40.96,0 16,11.04 16,19.52 40.96,20 24.96,0.48 48,-4.96 49.44,0 A 41.28,41.28 0 0 1 876.32,500 c -2.56,1.44 -87.04,11.52 -107.04,12.48 -20,0.96 -16,5.44 -27.04,0 C 731.2,507.04 713.76,486.4 688,482.4 c -25.76,-4 -104.48,-8.96 -120,-8.96 -15.52,0 -20,0 -21.44,7.52 -1.44,7.52 1.44,83.04 -6.56,107.52 -8,24.48 -2.56,64.96 26.56,76.48 29.12,11.52 59.04,17.44 63.04,28 4,10.56 18.08,80 30.56,103.52 12.48,23.52 30.08,50.56 24,55.52 a 327.68,327.68 0 0 1 -96,24.48 372.64,372.64 0 0 1 -92.48,0 c 0,0 -18.56,-96 -23.52,-104.48 a 75.52,75.52 0 0 1 -6.56,-37.44 c 2.08,-6.56 37.44,-77.92 32.96,-96 -4.48,-18.08 -11.52,-36.48 -28,-40.96 -16.48,-4.48 -44,0 -88.48,0 a 455.2,455.2 0 0 1 -85.44,-7.04 c -8.96,-1.92 -13.92,0 -17.92,-4.48 -4,-4.48 -36.48,-64 -32,-69.44 4.48,-5.44 49.92,-18.56 52,-28.96 2.08,-10.4 -0.96,-36 10.56,-36.96 11.52,-0.96 61.92,6.08 77.92,-2.56 16,-8.64 17.92,-28 18.56,-44.96 0.64,-16.96 -5.92,-54.56 -13.44,-61.44 -7.52,-6.88 -80,-28.96 -107.52,-43.52 -27.52,-14.56 -51.04,-26.24 -48,-35.84 a 196.96,196.96 0 0 1 60.48,-56.48 z"
         fill="#85bfe9"
         id="path36384"
         style="stroke-width:63.0819" /><path
         d="m 327.84,240 c 8.64,-1.28 9.44,5.44 6.56,11.52 -2.88,6.08 0,27.52 9.44,27.04 a 896,896 0 0 1 102.56,-16.96 421.92,421.92 0 0 1 128,26.56 c 12,6.56 17.44,32 18.56,39.52 A 465.44,465.44 0 0 1 548.8,416 c -4.48,2.56 -51.04,-16 -84.48,-32 -33.44,-16 -48,-23.52 -49.44,-29.92 -1.44,-6.4 -4.96,-25.44 -8,-27.04 -3.04,-1.6 -48,-4.48 -69.44,-17.44 -21.44,-12.96 -40.96,-33.92 -36.96,-43.04 4,-9.12 20.32,-26.56 27.36,-26.56 z"
         fill="#1d1d1b"
         id="path36386"
         style="stroke-width:63.0819" /><path
         d="m 389.76,285.92 a 330.56,330.56 0 0 1 116,4.96 c 51.04,10.08 59.04,18.56 57.44,31.04 -1.6,12.48 -20.48,64 -27.52,61.44 a 686.4,686.4 0 0 1 -84.96,-35.04 c -3.52,-4.96 -4.48,-29.92 -19.52,-34.56 -15.04,-4.64 -45.92,-13.92 -56.48,-17.92 -10.56,-4 -8,-8 -5.44,-8 2.56,0 20.48,-1.92 20.48,-1.92 z m 371.52,-42.56 c 3.36,-1.12 47.04,16.96 76.96,74.08 29.92,57.12 39.52,127.04 36,133.44 -3.52,6.4 -14.56,7.04 -24.48,4 -9.92,-3.04 -49.76,-24.96 -58.4,-24.96 -8.64,0 -22.56,7.52 -28.48,0 -5.92,-7.52 -24,-29.92 -42.08,-29.92 -18.08,0 -21.92,3.04 -24.96,-0.96 -3.04,-4 -12.96,-88.48 5.92,-104 18.88,-15.52 35.52,-25.44 43.04,-32 7.52,-6.56 12,-18.08 16.48,-19.68 z M 571.36,496 c 5.92,0 91.52,-6.56 108.48,10.08 16.96,16.64 31.04,34.56 45.44,34.08 14.4,-0.48 147.04,-12 147.04,-7.04 0,4.96 -15.04,120 -37.92,178.56 a 257.12,257.12 0 0 1 -88.48,112.96 c -18.56,10.56 -37.44,14.56 -39.04,11.52 A 354.88,354.88 0 0 1 670.4,741.12 c -11.04,-51.52 -13.92,-75.52 -31.04,-80 -17.12,-4.48 -59.04,-14.56 -67.04,-24.48 a 64,64 0 0 1 -8.96,-29.92 c 0,0 4.48,-61.92 4.48,-75.52 0,-13.6 0.48,-35.2 3.52,-35.2 z M 278.88,611.36 a 206.08,206.08 0 0 0 77.44,14.56 c 52.96,0.96 104.96,-4.96 110.56,1.44 5.6,6.4 4.48,28.48 -7.04,49.44 a 343.04,343.04 0 0 0 -19.04,41.44 413.6,413.6 0 0 0 -50.56,-40 9.28,9.28 0 0 0 -5.44,11.04 c 2.08,4.48 48,35.52 50.08,39.52 a 151.68,151.68 0 0 1 -1.44,28 423.68,423.68 0 0 0 -48,-37.92 c -5.92,-0.96 -9.92,13.44 -8,16 1.92,2.56 56.48,40 64,46.56 a 99.84,99.84 0 0 1 13.44,40.48 c -1.44,0 -62.56,-49.44 -65.92,-49.92 -3.36,-0.48 -4.48,16 -4.48,16 0,0 72,51.04 74.56,55.04 a 108.8,108.8 0 0 1 7.04,30.08 486.24,486.24 0 0 1 -57.44,-14.56 c -20,-7.52 -37.44,-11.52 -37.44,-12.96 0,-1.44 -19.2,-60.64 -45.44,-86.24 A 208,208 0 0 1 288,716.96 517.6,517.6 0 0 1 282.56,657.44 c -0.8,-13.6 -6.72,-46.08 -3.68,-46.08 z"
         fill="#4eae4d"
         id="path36388"
         style="stroke-width:63.0819" /><path
         d="m 168.32,614.4 c 3.04,-5.92 40.96,4 59.04,11.04 18.08,7.04 24,16 24.48,30.08 0.48,14.08 -1.92,74.56 10.56,85.44 a 174.08,174.08 0 0 1 48.96,52.48 116.96,116.96 0 0 1 16,35.04 320,320 0 0 1 -94.56,-88 C 181.76,674.4 166.88,617.44 168.32,614.4 Z"
         fill="#85bfe9"
         id="path36390"
         style="stroke-width:63.0819" /><path
         d="m 153.76,578.88 a 283.2,283.2 0 0 1 -1.92,-154.56 c 21.92,-91.04 64,-139.52 67.52,-139.04 3.52,0.48 86.56,48 120,64 33.44,16 35.52,16 38.08,23.04 a 165.28,165.28 0 0 1 -3.04,53.44 c -3.04,1.44 -63.04,-1.44 -80,0 -16.96,1.44 -22.4,25.6 -21.12,35.2 1.28,9.6 2.08,14.08 -1.92,16.96 -4,2.88 -57.44,17.44 -60.48,32 -3.04,14.56 38.08,86.08 32,88 -6.08,1.92 -73.12,-2.56 -89.12,-19.04 z"
         fill="#4eae4d"
         id="path36392"
         style="stroke-width:63.0819" /><path
         d="m 181.76,402.88 a 304,304 0 0 1 18.56,-58.56 c 8,-12 11.52,-14.56 15.04,-13.44 3.52,1.12 13.44,5.44 12.48,8.48 -0.96,3.04 -17.92,36 -22.56,50.56 -4.64,14.56 0,14.56 -6.56,16 -6.56,1.44 -14.88,0.48 -16.96,-3.04 z M 640,249.44 c 2.56,-2.08 40.48,-11.52 43.04,-8 2.56,3.52 5.44,7.04 3.04,8.96 a 192,192 0 0 1 -41.92,15.04 c -3.36,-1.6 -7.36,-13.6 -4.16,-16 z m -24.64,117.44 c 2.56,2.56 23.52,36.48 20.96,39.52 -2.56,3.04 0,7.52 -5.44,4.96 A 100.96,100.96 0 0 1 606.4,375.84 c 1.6,-4 8.96,-8.96 8.96,-8.96 z M 592,389.92 a 189.92,189.92 0 0 1 27.52,33.44 c 0,3.04 0,7.52 -4.96,6.08 A 129.6,129.6 0 0 1 584.8,400 c 0,-2.56 7.2,-10.56 7.2,-10.08 z M 789.28,314.4 a 115.2,115.2 0 0 1 40,19.52 c 0,3.04 1.44,11.04 -2.56,9.44 -4,-1.6 -40.48,-16 -41.92,-17.92 -1.44,-1.92 4,-10.56 4.48,-11.04 z m -3.52,37.6 c 1.28,-1.6 64,35.04 64,40.48 0,5.44 5.44,9.44 -0.96,8.48 a 480,480 0 0 1 -68,-34.56 c -1.92,-3.04 3.2,-12 4.96,-14.4 z m -5.92,32 a 414.56,414.56 0 0 1 77.44,42.08 c 0.96,4.48 4.48,9.44 -1.92,8.96 A 645.44,645.44 0 0 1 776.32,397.12 16,16 0 0 1 779.84,384 Z m 15.04,184.48 a 211.04,211.04 0 0 1 46.56,44.48 c -1.44,4 0,6.08 -4.48,4.48 a 363.04,363.04 0 0 1 -49.92,-43.52 c 0.8,-2.56 5.28,-4.48 7.84,-5.44 z m -25.12,30.4 a 461.12,461.12 0 0 1 53.44,50.56 c 0,4 -1.92,7.52 -4,7.04 a 636.16,636.16 0 0 1 -55.04,-48 81.28,81.28 0 0 1 5.6,-9.6 z m -16,32.48 a 376.16,376.16 0 0 1 53.44,52.96 c -0.96,4 0.96,6.56 -4,6.08 A 647.68,647.68 0 0 1 746.88,640 c 0,0 5.92,-8.64 6.88,-8.64 z m -12.48,26.56 a 462.72,462.72 0 0 1 54.56,52.48 c 0,4 -1.44,6.56 -3.52,4.96 a 759.68,759.68 0 0 1 -61.44,-49.44 13.76,13.76 0 0 1 10.4,-8 z m -9.92,48 a 257.12,257.12 0 0 1 48.96,43.52 c 0,3.52 -2.56,6.08 -4,5.44 a 542.24,542.24 0 0 1 -51.04,-40 c -0.48,-3.04 4.96,-8.48 6.08,-8.96 z M 720,734.88 c 2.72,0 52,43.04 48,47.04 -4,4 -1.92,6.08 -5.92,4.48 a 361.12,361.12 0 0 1 -49.92,-43.04 c 1.6,-2.4 5.12,-8.48 7.84,-8.48 z m -157.12,-40 c 1.44,-2.24 20.96,4.96 20.48,9.44 -0.48,4.48 0,5.44 -2.56,5.44 a 83.2,83.2 0 0 1 -24.48,-7.04 c 0,-1.76 5.44,-6.24 6.56,-7.84 z m -32.64,61.6 a 23.2,23.2 0 0 1 18.56,0 c 7.52,3.52 18.56,16 28.48,17.44 9.92,1.44 17.44,-4.48 20,-3.04 a 5.76,5.76 0 0 1 2.56,7.52 c -1.44,2.56 -2.56,4.96 -6.56,6.08 a 32.96,32.96 0 0 1 -24,-2.56 C 560,775.84 554.24,768 544,768 c -10.24,0 -8.96,2.08 -11.04,0 -2.08,-2.08 -6.72,-8.16 -2.72,-11.52 z M 416,642.4 c 4,2.56 32.96,28 32,32 -0.96,4 -3.04,8 -5.92,7.04 a 163.2,163.2 0 0 1 -34.56,-28.96 c -0.16,-4 8.48,-10.08 8.48,-10.08 z M 387.36,486.88 c 2.08,0 44.96,67.04 41.44,70.56 -3.52,3.52 -5.44,7.04 -7.52,4.96 a 718.88,718.88 0 0 1 -45.44,-69.44 21.44,21.44 0 0 1 11.52,-6.08 z M 403.84,480 c 0,-1.76 9.44,-5.92 12.48,-3.04 a 197.76,197.76 0 0 1 21.92,43.52 c -1.44,3.04 0,7.52 -4,4.48 A 274.72,274.72 0 0 1 403.84,480 Z m 88,-4.64 c 1.28,-1.92 16,-16 20.48,-16 4.48,0 16,0 14.56,3.52 -1.44,3.52 -22.56,30.56 -26.56,28 a 26.88,26.88 0 0 1 -8.48,-15.52 z"
         fill="#1d1d1b"
         id="path36394"
         style="stroke-width:63.0819" /></g></g></svg>
