<?xml version="1.0" encoding="UTF-8" standalone="no"?>
<!-- Created with Inkscape (http://www.inkscape.org/) -->

<svg
   width="880"
   height="440"
   viewBox="0 0 176 88"
   version="1.1"
   id="svg5"
   xml:space="preserve"
   xmlns="http://www.w3.org/2000/svg"
   xmlns:svg="http://www.w3.org/2000/svg"><defs
     id="defs2"><rect
       x="645.99359"
       y="660.75775"
       width="457.85953"
       height="135.95148"
       id="rect5061-4" /><rect
       x="645.99359"
       y="660.75775"
       width="457.85953"
       height="135.95148"
       id="rect5061-7-7" /><rect
       x="645.99359"
       y="660.75775"
       width="457.85953"
       height="135.95148"
       id="rect5061-7-3-4" /><rect
       x="645.99359"
       y="660.75775"
       width="457.85953"
       height="135.95148"
       id="rect5061-7-1-4" /><rect
       x="645.99359"
       y="660.75775"
       width="457.85953"
       height="135.95148"
       id="rect5061-7-1-6-3" /></defs><g
     id="layer1"
     transform="translate(-12,-108)"><path
       style="display:none;fill:#009a07;fill-opacity:0.147707;stroke:none;stroke-width:0.4;stroke-miterlimit:4;stroke-dasharray:none;stroke-opacity:1"
       d="M 236,128 188,108 V 76 l 48,-4 z m -128,0 48,-20 V 76 L 108,36 Z"
       id="path37898" /><rect
       style="fill:#064369;fill-opacity:1;stroke-width:0.192839"
       id="rect111-7"
       width="176"
       height="88"
       x="12"
       y="108"
       ry="3.9999998"
       rx="4" /><rect
       style="fill:#323232;fill-opacity:1;stroke-width:0.192839"
       id="rect111-6-0-8"
       width="48"
       height="68"
       x="75.999992"
       y="120"
       ry="3.9999998"
       rx="4" /><rect
       style="fill:#c0c0c0;fill-opacity:1;stroke-width:0.200001"
       id="rect2510-3-3-7-56-3-6"
       width="40"
       height="24"
       x="81.999992"
       y="158"
       rx="3.9999998"
       ry="3.9999998" /><rect
       style="fill:#989898;fill-opacity:1;stroke-width:0.200001"
       id="rect2510-3-3-7-56-8"
       width="40"
       height="24"
       x="80.999992"
       y="159"
       rx="3.9999998"
       ry="3.9999998" /><rect
       style="fill:#323232;fill-opacity:1;stroke-width:0.192839"
       id="rect111-6-0-2-8"
       width="48"
       height="68"
       x="19.999998"
       y="120"
       ry="3.9999998"
       rx="4" /><rect
       style="fill:#bfbfbf;fill-opacity:1;stroke-width:0.192839"
       id="rect111-6-0-7-4-2-4"
       width="48"
       height="68"
       x="134"
       y="118"
       ry="3.9999998"
       rx="4" /><rect
       style="fill:#999999;fill-opacity:1;stroke-width:0.192839"
       id="rect111-6-0-7-4-3"
       width="48"
       height="68"
       x="133"
       y="119"
       ry="3.9999998"
       rx="4" /><rect
       style="fill:#323232;fill-opacity:1;stroke-width:0.192839"
       id="rect111-6-0-7-1"
       width="48"
       height="68"
       x="132"
       y="120"
       ry="3.9999998"
       rx="4" /><rect
       style="fill:#666666;fill-opacity:1;stroke-width:0.200001"
       id="rect2510-3-3-7-4"
       width="40"
       height="24"
       x="79.999992"
       y="160"
       rx="3.9999998"
       ry="3.9999998" /><rect
       style="fill:#666666;fill-opacity:1;stroke-width:0.200001"
       id="rect2510-3-3-7-5-9"
       width="40"
       height="24"
       x="79.999992"
       y="132"
       rx="3.9999998"
       ry="3.9999998" /><rect
       style="fill:#666666;fill-opacity:1;stroke-width:0.200001"
       id="rect2510-3-3-7-5-7-2"
       width="40"
       height="24"
       x="136"
       y="132"
       rx="3.9999998"
       ry="3.9999998" /><text
       xml:space="preserve"
       transform="matrix(0.2,0,0,0.2,-113.42283,-22.062606)"
       id="text5059-0"
       style="font-size:32px;white-space:pre;shape-inside:url(#rect5061-4);display:inline;fill:#ffffff;fill-opacity:1"><tspan
         x="645.99414"
         y="690.35781"
         id="tspan2"><tspan
           style="font-family:'CMU Serif';-inkscape-font-specification:'CMU Serif'"
           id="tspan1">Runner</tspan></tspan></text><text
       xml:space="preserve"
       transform="matrix(0.2,0,0,0.2,-49.38633,-10.071566)"
       id="text5059-8-6"
       style="font-size:32px;white-space:pre;shape-inside:url(#rect5061-7-7);display:inline;fill:#ffffff;fill-opacity:1"><tspan
         x="645.99414"
         y="690.35781"
         id="tspan4"><tspan
           style="font-family:'CMU Serif';-inkscape-font-specification:'CMU Serif'"
           id="tspan3">Algorithm</tspan></tspan></text><text
       xml:space="preserve"
       transform="matrix(0.2,0,0,0.2,6.5643801,-10.141956)"
       id="text5059-8-53-8"
       style="font-size:32px;white-space:pre;shape-inside:url(#rect5061-7-3-4);display:inline;fill:#ffffff;fill-opacity:1"><tspan
         x="645.99414"
         y="690.35781"
         id="tspan6"><tspan
           style="font-family:'CMU Serif';-inkscape-font-specification:'CMU Serif'"
           id="tspan5">Models</tspan></tspan></text><text
       xml:space="preserve"
       transform="matrix(0.2,0,0,0.2,-79.829559,29.355639)"
       id="text5059-8-0-9"
       style="font-size:24px;text-align:center;white-space:pre;shape-inside:url(#rect5061-7-1-4);display:inline;fill:#ffffff;fill-opacity:1"
       x="75.840042"
       y="0"><tspan
         x="818.35582"
         y="682.95781"
         id="tspan8"><tspan
           style="font-family:'CMU Serif';-inkscape-font-specification:'CMU Serif'"
           id="tspan7">Extensions</tspan></tspan></text><rect
       style="fill:#666666;fill-opacity:1;stroke-width:0.2"
       id="rect2510-3-3-7-2-2"
       width="40"
       height="24"
       x="136"
       y="160"
       rx="3.9999998"
       ry="4" /><rect
       style="fill:#d9d9d9;fill-opacity:1;stroke-width:0.192839"
       id="rect111-6-0-2-3-9-8"
       width="32"
       height="2"
       x="84"
       y="136"
       ry="1"
       rx="1" /><rect
       style="fill:#d9d9d9;fill-opacity:1;stroke-width:0.192839"
       id="rect111-6-0-2-3-6-8-5"
       width="24"
       height="2"
       x="84"
       y="140"
       ry="1"
       rx="1" /><rect
       style="fill:#d9d9d9;fill-opacity:1;stroke-width:0.192839"
       id="rect111-6-0-2-3-6-8-1-7"
       width="28"
       height="2"
       x="84"
       y="144"
       ry="1"
       rx="1" /><rect
       style="fill:#d9d9d9;fill-opacity:1;stroke-width:0.192839"
       id="rect111-6-0-2-3-9-6-4"
       width="32"
       height="2"
       x="24"
       y="124"
       ry="1"
       rx="1" /><rect
       style="fill:#d9d9d9;fill-opacity:1;stroke-width:0.192839"
       id="rect111-6-0-2-3-6-8-2-1"
       width="24"
       height="2"
       x="24"
       y="128"
       ry="1"
       rx="1" /><rect
       style="fill:#d9d9d9;fill-opacity:1;stroke-width:0.192839"
       id="rect111-6-0-2-3-6-8-1-1-8"
       width="28"
       height="2"
       x="24"
       y="132"
       ry="1"
       rx="1" /><rect
       style="fill:#d9d9d9;fill-opacity:1;stroke-width:0.192839"
       id="rect111-6-0-2-3-9-3-5"
       width="32"
       height="2"
       x="84"
       y="170"
       ry="1"
       rx="1" /><rect
       style="fill:#d9d9d9;fill-opacity:1;stroke-width:0.192839"
       id="rect111-6-0-2-3-6-8-0-9"
       width="24"
       height="2"
       x="84"
       y="174"
       ry="1"
       rx="1" /><rect
       style="fill:#d9d9d9;fill-opacity:1;stroke-width:0.192839"
       id="rect111-6-0-2-3-6-8-1-4-753"
       width="28"
       height="2"
       x="84"
       y="178"
       ry="1"
       rx="1" /><rect
       style="fill:#d9d9d9;fill-opacity:1;stroke-width:0.192839"
       id="rect111-6-0-2-3-9-3-4-8"
       width="32"
       height="2"
       x="140"
       y="136"
       ry="1"
       rx="1" /><rect
       style="fill:#d9d9d9;fill-opacity:1;stroke-width:0.192839"
       id="rect111-6-0-2-3-6-8-0-4-8"
       width="24"
       height="2"
       x="140"
       y="140"
       ry="1"
       rx="1" /><rect
       style="fill:#d9d9d9;fill-opacity:1;stroke-width:0.192839"
       id="rect111-6-0-2-3-6-8-1-4-7-3"
       width="28"
       height="2"
       x="140"
       y="144"
       ry="1"
       rx="1" /><rect
       style="fill:#d9d9d9;fill-opacity:1;stroke-width:0.192839"
       id="rect111-6-0-2-3-9-3-3-1"
       width="32"
       height="2"
       x="140"
       y="170"
       ry="1"
       rx="1" /><rect
       style="fill:#d9d9d9;fill-opacity:1;stroke-width:0.192839"
       id="rect111-6-0-2-3-6-8-0-1-8"
       width="24"
       height="2"
       x="140"
       y="174"
       ry="1"
       rx="1" /><rect
       style="fill:#d9d9d9;fill-opacity:1;stroke-width:0.192839"
       id="rect111-6-0-2-3-6-8-1-4-75-9"
       width="28"
       height="2"
       x="140"
       y="178"
       ry="1"
       rx="1" /><text
       xml:space="preserve"
       transform="matrix(0.2,0,0,0.2,-22.384756,29.355639)"
       id="text5059-8-0-0-6"
       style="font-size:24px;text-align:center;white-space:pre;shape-inside:url(#rect5061-7-1-6-3);display:inline;fill:#ffffff;fill-opacity:1"
       x="75.840042"
       y="0"><tspan
         x="811.08379"
         y="682.95781"
         id="tspan10"><tspan
           style="font-family:'CMU Serif';-inkscape-font-specification:'CMU Serif'"
           id="tspan9">Distribution</tspan></tspan></text></g></svg>
