<?xml version="1.0" encoding="UTF-8"?>
<svg id="Layer_1" data-name="Layer 1" xmlns="http://www.w3.org/2000/svg" viewBox="0 0 1000 1000">
  <defs>
    <style>
      .cls-1 {
        fill: none;
      }

      .cls-2 {
        fill: #0079bf;
      }
    </style>
  </defs>
  <path d="M331.56,407.87v330.89c0,1.57,1.27,2.84,2.84,2.84h331.19c1.57,0,2.84-1.27,2.84-2.84v-52.64c0-1.57-1.27-2.84-2.84-2.84h-256.61c-1.57,0-2.84-1.27-2.84-2.84v-330.79c0-1.57-1.27-2.84-2.84-2.84h-68.91c-1.57,0-2.84,1.27-2.84,2.84v58.23Z"/>
  <path d="M658.4,653.19h-72.37c-1.05,0-2.02-.58-2.51-1.52l-91.73-174.57-27.03-54.22c-.94-1.89.43-4.11,2.54-4.11h77.21c32.89,0,49.35-12.15,49.35-36.45v-29.16c0-24.3-16.46-36.45-49.35-36.45h-210.1c-1.57,0-2.84-1.27-2.84-2.84v-52.64c0-1.57,1.27-2.84,2.84-2.84h210.1c22.43,0,41.5,2.34,57.2,7.01,15.7,4.68,28.5,11.22,38.41,19.63,9.9,8.41,17.1,18.42,21.59,30,4.49,11.59,6.73,24.49,6.73,38.69v28.04c0,25.43-7.48,46.64-22.43,63.65-14.37,16.34-38.05,26.38-71.03,30.13-1.97.22-3.1,2.35-2.18,4.11l60.13,114.46,28.01,54.94c.96,1.89-.41,4.13-2.53,4.13Z"/>
  <g>
    <polygon class="cls-1" points="1000 449.83 1000 178.74 813.37 365.37 448.01 0 180.56 0 366.28 185.71 0 551.99 0 821.26 186.63 634.63 551.99 1000 821.26 1000 635.55 814.29 1000 449.83"/>
    <polygon class="cls-2" points="180.56 0 0 0 0 551.99 366.28 185.71 180.56 0"/>
  </g>
</svg>