<?xml version="1.0" encoding="UTF-8" standalone="no"?>
<!-- Created with Inkscape (http://www.inkscape.org/) -->

<svg
   version="1.1"
   id="svg1"
   width="500.00006"
   height="500.00006"
   viewBox="0 0 500.00006 500.00006"
   xmlns="http://www.w3.org/2000/svg"
   xmlns:svg="http://www.w3.org/2000/svg">
  <defs
     id="defs1" />
  <g
     id="g1"
     transform="translate(0.15050979,1221.2031)">
    <rect
       style="fill:#ffffff;fill-opacity:1;stroke:#4d4d4d;stroke-width:0;stroke-linecap:round;stroke-linejoin:round;stroke-dasharray:none;paint-order:fill markers stroke"
       id="rect44-1-6-1"
       width="500.00006"
       height="500.00006"
       x="-0.15050979"
       y="-1221.2031" />
    <path
       id="path19-1-9-6-3"
       d="m 134.33359,-1177.2169 86.1624,86.1625 -86.1624,86.1646 z"
       style="fill:#367ac7;fill-opacity:1;fill-rule:nonzero;stroke:none;stroke-width:0.133335" />
    <path
       id="path18-9-8-4-9-7"
       style="fill:#231f20;fill-opacity:1;fill-rule:nonzero;stroke:none;stroke-width:0.133334"
       d="m 170.4941,-1033.0128 a 0.61195736,0.61195736 0 0 0 -0.5859,0.6107 v 28.4245 0.01 158.03602 c 0,0.3679 0.2971,0.6675 0.6651,0.6675 h 68.7692 81.7551 8.3424 c 0.3679,0 0.6651,-0.2996 0.6651,-0.6675 v -26.402 c 0,-0.3678 -0.2972,-0.6651 -0.6651,-0.6651 h -8.3128 -0.03 -81.755 -33.3029 c -0.368,0 -0.6651,-0.2998 -0.6651,-0.6676 v -158.67152 c 0,-0.3696 -0.2996,-0.67 -0.6676,-0.67 z" />
    <path
       id="path37-2-0-6-7"
       style="fill:#231f20;fill-opacity:1;fill-rule:nonzero;stroke:none;stroke-width:0.133334"
       d="m 170.5758,-1079.5541 c -0.3697,0 -0.6676,0.3004 -0.6676,0.6701 v 26.397 c 0,0.3697 0.2979,0.6701 0.6676,0.6701 h 100.5934 c 15.6421,0 23.4671,5.7769 23.4671,17.3325 v 13.8661 c 0,11.559 -7.825,17.3351 -23.4671,17.3351 H 233.349 c -0.4946,0 -0.817,0.5204 -0.5959,0.9643 l 13.3469,26.7704 43.8137,83.38202 c 0.1148,0.2176 0.3428,0.3561 0.5909,0.3561 h 36.448 c 0.4551,3e-4 0.7194,-0.4747 0.5415,-0.8531 v 0 l -38.9873,-74.26572 -0.1978,-0.3783 -4.1564,-7.9122 c -0.2177,-0.4134 0.066,-0.9099 0.5316,-0.9593 16.1923,-1.6952 27.7782,-6.5024 34.7493,-14.4324 7.1079,-8.0885 10.6691,-18.1774 10.6691,-30.2715 v -13.3345 c 0,-6.7534 -1.0684,-12.8838 -3.202,-18.3982 -2.1335,-5.5094 -5.5584,-10.2679 -10.266,-14.2666 -4.7127,-4.0004 -10.8015,-7.1117 -18.2673,-9.3364 -7.4657,-2.2196 -16.5345,-3.333 -27.2005,-3.333 z" />
    <path
       id="path44-5-6-0-2"
       style="fill:#000000;fill-opacity:1;stroke:#4d4d4d;stroke-width:0;stroke-linecap:round;stroke-linejoin:round;stroke-dasharray:none;paint-order:fill markers stroke"
       d="M -423.00001,-1579 V -372.67567 H 927.57425 V -1579 Z m 422.84950147,357.7969 H 499.84959 v 500.00003 H -0.15050853 Z" />
  </g>
</svg>
